<mxfile host="app.diagrams.net" modified="2023-06-26T09:47:04.055Z" agent="Mozilla/5.0 (Macintosh; Intel Mac OS X 10_15_7) AppleWebKit/537.36 (KHTML, like Gecko) Chrome/114.0.0.0 Safari/537.36" version="21.5.0" etag="qZp8hqbLr-v5YXk3KyI0" type="github">
  <diagram name="Page-1" id="4pALGEZyvohJSKsw4dnC">
    <mxGraphModel>
      <root>
        <mxCell id="0" />
        <mxCell id="1" parent="0" />
      </root>
    </mxGraphModel>
  </diagram>
</mxfile>
